# Blender 4.2.1 LTS
# www.blender.org
o slidingpart
v -4.871193 4.361982 0.137949
v -4.871193 4.473821 0.137949
v -4.821204 4.361982 0.137949
v -4.821204 4.473821 0.137949
v -4.867439 4.361982 0.195039
v -4.871193 4.361982 0.179906
v -4.863161 4.361982 0.187938
v -4.869316 4.361982 0.190413
v -4.870690 4.361982 0.184874
v -4.871193 4.473821 0.179906
v -4.867439 4.473821 0.195039
v -4.863161 4.473821 0.187938
v -4.870690 4.473821 0.184874
v -4.869316 4.473821 0.190413
v -4.821204 4.361982 0.179906
v -4.824958 4.361982 0.195039
v -4.829236 4.361982 0.187938
v -4.821707 4.361982 0.184874
v -4.823081 4.361982 0.190413
v -4.824958 4.473821 0.195039
v -4.821204 4.473821 0.179906
v -4.829236 4.473821 0.187938
v -4.823081 4.473821 0.190413
v -4.821707 4.473821 0.184874
v -4.859335 4.473821 0.210369
v -4.847550 4.473821 0.217469
v -4.856382 4.473821 0.213919
v -4.852069 4.473821 0.216518
v -4.844847 4.473821 0.217469
v -4.833062 4.473821 0.210369
v -4.840328 4.473821 0.216518
v -4.836015 4.473821 0.213919
v -4.833062 4.361982 0.210369
v -4.844847 4.361982 0.217469
v -4.836015 4.361982 0.213919
v -4.840328 4.361982 0.216518
v -4.847550 4.361982 0.217469
v -4.859335 4.361982 0.210369
v -4.852069 4.361982 0.216518
v -4.856382 4.361982 0.213919
v -4.871193 4.427462 0.137949
v -4.871193 4.408341 0.137949
v -4.821204 4.408341 0.137949
v -4.821204 4.427462 0.137949
v -4.867439 4.408341 0.195039
v -4.867439 4.427462 0.195039
v -4.869316 4.427462 0.190413
v -4.869316 4.408341 0.190413
v -4.870690 4.427462 0.184874
v -4.870690 4.408341 0.184874
v -4.871193 4.427462 0.179906
v -4.871193 4.408341 0.179906
v -4.824958 4.427462 0.195039
v -4.824958 4.408341 0.195039
v -4.823081 4.408341 0.190413
v -4.823081 4.427462 0.190413
v -4.821707 4.408341 0.184874
v -4.821707 4.427462 0.184874
v -4.821204 4.408341 0.179906
v -4.821204 4.427462 0.179906
v -4.847550 4.408341 0.217469
v -4.847550 4.427462 0.217469
v -4.852069 4.427462 0.216518
v -4.852069 4.408341 0.216518
v -4.856382 4.427462 0.213919
v -4.856382 4.408341 0.213919
v -4.859335 4.427462 0.210369
v -4.859335 4.408341 0.210369
v -4.844847 4.427462 0.217469
v -4.844847 4.408341 0.217469
v -4.840328 4.408341 0.216518
v -4.840328 4.427462 0.216518
v -4.836015 4.408341 0.213919
v -4.836015 4.427462 0.213919
v -4.833062 4.408341 0.210369
v -4.833062 4.427462 0.210369
v -4.871193 4.427462 0.086779
v -4.871193 4.408341 0.086779
v -4.821204 4.408341 0.086779
v -4.821204 4.427462 0.086779
vn -0.0000 -1.0000 -0.0000
vn -0.0000 1.0000 -0.0000
vn -0.0000 -0.0000 1.0000
vn -1.0000 -0.0000 -0.0000
vn -0.0000 -0.0000 -1.0000
vn -0.8841 -0.0000 0.4674
vn 1.0000 -0.0000 -0.0000
vn 0.8841 -0.0000 0.4674
vn -0.9267 -0.0000 0.3759
vn -0.9706 -0.0000 0.2408
vn -0.9949 -0.0000 0.1007
vn 0.9267 -0.0000 0.3759
vn 0.9706 -0.0000 0.2408
vn 0.9949 -0.0000 0.1007
vn -0.2060 -0.0000 0.9786
vn -0.5161 -0.0000 0.8565
vn -0.7688 -0.0000 0.6395
vn 0.2060 -0.0000 0.9786
vn 0.5161 -0.0000 0.8565
vn 0.7688 -0.0000 0.6395
vn -0.9266 -0.0000 0.3759
s 0
f 5//1 7//1 17//1 16//1 33//1 35//1 36//1 34//1 37//1 39//1 40//1 38//1
f 20//2 22//2 12//2 11//2 25//2 27//2 28//2 26//2 29//2 31//2 32//2 30//2
f 69//3 29//3 26//3 62//3
f 41//4 51//4 10//4 2//4
f 42//5 43//5 3//5 1//5
f 45//6 5//6 38//6 68//6
f 2//2 10//2 12//2 22//2 21//2 4//2
f 43//7 59//7 15//7 3//7
f 53//8 20//8 30//8 76//8
f 5//1 8//1 7//1
f 8//1 9//1 7//1
f 9//1 6//1 7//1
f 10//2 13//2 12//2
f 13//2 14//2 12//2
f 14//2 11//2 12//2
f 15//1 18//1 17//1
f 18//1 19//1 17//1
f 19//1 16//1 17//1
f 20//2 23//2 22//2
f 23//2 24//2 22//2
f 24//2 21//2 22//2
f 46//9 11//9 14//9 47//9
f 47//10 14//10 13//10 49//10
f 49//11 13//11 10//11 51//11
f 54//12 16//12 19//12 55//12
f 55//13 19//13 18//13 57//13
f 57//14 18//14 15//14 59//14
f 62//15 26//15 28//15 63//15
f 63//16 28//16 27//16 65//16
f 65//17 27//17 25//17 67//17
f 70//18 34//18 36//18 71//18
f 71//19 36//19 35//19 73//19
f 73//20 35//20 33//20 75//20
f 3//1 15//1 17//1 7//1 6//1 1//1
f 32//20 74//20 76//20 30//20
f 74//20 73//20 75//20 76//20
f 31//19 72//19 74//19 32//19
f 72//19 71//19 73//19 74//19
f 29//18 69//18 72//18 31//18
f 69//18 70//18 71//18 72//18
f 40//17 66//17 68//17 38//17
f 66//17 65//17 67//17 68//17
f 39//16 64//16 66//16 40//16
f 64//16 63//16 65//16 66//16
f 37//15 61//15 64//15 39//15
f 61//15 62//15 63//15 64//15
f 24//14 58//14 60//14 21//14
f 58//14 57//14 59//14 60//14
f 23//13 56//13 58//13 24//13
f 56//13 55//13 57//13 58//13
f 20//12 53//12 56//12 23//12
f 53//12 54//12 55//12 56//12
f 9//11 50//11 52//11 6//11
f 50//11 49//11 51//11 52//11
f 8//10 48//10 50//10 9//10
f 48//10 47//10 49//10 50//10
f 5//21 45//21 48//21 8//21
f 45//9 46//9 47//9 48//9
f 16//8 54//8 75//8 33//8
f 54//8 53//8 76//8 75//8
f 4//7 21//7 60//7 44//7
f 44//7 60//7 59//7 43//7
f 11//6 46//6 67//6 25//6
f 46//6 45//6 68//6 67//6
f 2//5 4//5 44//5 41//5
f 41//2 44//2 80//2 77//2
f 1//4 6//4 52//4 42//4
f 42//4 52//4 51//4 41//4
f 34//3 70//3 61//3 37//3
f 70//3 69//3 62//3 61//3
f 77//5 80//5 79//5 78//5
f 44//7 43//7 79//7 80//7
f 42//4 41//4 77//4 78//4
f 43//1 42//1 78//1 79//1
