# Blender 4.2.1 LTS
# www.blender.org
o table
v -6.712195 -0.296128 7.510160
v -6.612195 -0.196128 7.510160
v -6.612195 -0.296128 7.610160
v -6.698836 -0.246194 7.510160
v -6.698836 -0.296128 7.560095
v -6.685859 -0.248307 7.557981
v -6.612195 -0.209488 7.560095
v -6.662130 -0.209488 7.510160
v -6.660017 -0.222465 7.557981
v -6.662130 -0.296128 7.596801
v -6.612195 -0.246194 7.596801
v -6.660017 -0.248307 7.583824
v 6.612195 -0.296128 7.610160
v 6.612195 -0.196128 7.510160
v 6.712195 -0.296128 7.510160
v 6.612195 -0.246194 7.596801
v 6.662130 -0.296128 7.596801
v 6.660017 -0.248307 7.583824
v 6.662130 -0.209488 7.510160
v 6.612195 -0.209488 7.560095
v 6.660017 -0.222465 7.557981
v 6.698836 -0.296128 7.560095
v 6.698836 -0.246194 7.510160
v 6.685859 -0.248307 7.557981
v -6.712195 -0.296128 0.687669
v -6.612195 -0.296128 0.587669
v -6.612195 -0.196128 0.687669
v -6.698836 -0.296128 0.637734
v -6.698836 -0.246194 0.687669
v -6.685859 -0.248307 0.639848
v -6.612195 -0.246194 0.601028
v -6.662130 -0.296128 0.601028
v -6.660017 -0.248307 0.614006
v -6.662130 -0.209488 0.687669
v -6.612195 -0.209488 0.637734
v -6.660017 -0.222465 0.639848
v 6.712195 -0.296128 0.687669
v 6.612195 -0.196128 0.687669
v 6.612195 -0.296128 0.587669
v 6.698836 -0.246194 0.687669
v 6.698836 -0.296128 0.637734
v 6.685859 -0.248307 0.639848
v 6.612195 -0.209488 0.637734
v 6.662130 -0.209488 0.687669
v 6.660017 -0.222465 0.639848
v 6.662130 -0.296128 0.601028
v 6.612195 -0.246194 0.601028
v 6.660017 -0.248307 0.614006
v -6.712195 -0.792605 0.687669
v -6.612195 -0.892605 0.687669
v -6.612195 -0.792605 0.587669
v -6.698836 -0.842540 0.687669
v -6.698836 -0.792605 0.637734
v -6.685859 -0.840426 0.639848
v -6.612195 -0.879246 0.637734
v -6.662130 -0.879246 0.687669
v -6.660017 -0.866269 0.639848
v -6.662130 -0.792605 0.601028
v -6.612195 -0.842540 0.601028
v -6.660017 -0.840426 0.614006
v -6.712195 -0.792605 7.510160
v -6.612195 -0.792605 7.610160
v -6.612195 -0.892605 7.510160
v -6.698836 -0.792605 7.560095
v -6.698836 -0.842540 7.510160
v -6.685859 -0.840426 7.557981
v -6.612195 -0.842540 7.596801
v -6.662130 -0.792605 7.596801
v -6.660017 -0.840426 7.583824
v -6.662130 -0.879246 7.510160
v -6.612195 -0.879246 7.560095
v -6.660017 -0.866269 7.557981
v 6.612195 -0.792605 7.610160
v 6.712195 -0.792605 7.510160
v 6.612195 -0.892605 7.510160
v 6.662130 -0.792605 7.596801
v 6.612195 -0.842540 7.596801
v 6.660017 -0.840426 7.583824
v 6.698836 -0.842540 7.510160
v 6.698836 -0.792605 7.560095
v 6.685859 -0.840426 7.557981
v 6.612195 -0.879246 7.560095
v 6.662130 -0.879246 7.510160
v 6.660017 -0.866269 7.557981
v 6.712195 -0.792605 0.687669
v 6.612195 -0.792605 0.587669
v 6.612195 -0.892605 0.687669
v 6.698836 -0.792605 0.637734
v 6.698836 -0.842540 0.687669
v 6.685859 -0.840426 0.639848
v 6.612195 -0.842540 0.601028
v 6.662130 -0.792605 0.601028
v 6.660017 -0.840426 0.614006
v 6.662130 -0.879246 0.687669
v 6.612195 -0.879246 0.637734
v 6.660017 -0.866269 0.639848
vn -0.0000 -0.0000 -1.0000
vn -1.0000 -0.0000 -0.0000
vn -0.0000 -0.0000 1.0000
vn -0.0000 -1.0000 -0.0000
vn -0.0000 1.0000 -0.0000
vn 0.9318 -0.2566 -0.2566
vn 0.6901 -0.6901 -0.2178
vn 0.2566 -0.9318 -0.2566
vn 0.2178 -0.6901 -0.6901
vn 0.2566 -0.2566 -0.9318
vn 0.6901 -0.2178 -0.6901
vn 0.5773 -0.5774 -0.5773
vn -0.2566 -0.2566 -0.9318
vn -0.2178 -0.6901 -0.6901
vn -0.2566 -0.9318 -0.2566
vn -0.6901 -0.6901 -0.2178
vn -0.9318 -0.2566 -0.2566
vn -0.6901 -0.2178 -0.6901
vn -0.5774 -0.5774 -0.5773
vn 0.9318 -0.2566 0.2566
vn 0.6901 -0.2178 0.6901
vn 0.2566 -0.2566 0.9318
vn 0.2178 -0.6901 0.6901
vn 0.2566 -0.9318 0.2566
vn 0.6901 -0.6901 0.2178
vn 0.5773 -0.5773 0.5774
vn -0.9318 -0.2566 0.2566
vn -0.6901 -0.6901 0.2178
vn -0.2566 -0.9318 0.2566
vn -0.2178 -0.6901 0.6901
vn -0.2566 -0.2566 0.9318
vn -0.6901 -0.2178 0.6901
vn -0.5773 -0.5774 0.5773
vn 0.9318 0.2566 0.2566
vn 0.6901 0.6901 0.2178
vn 0.2566 0.9318 0.2566
vn 0.2178 0.6901 0.6901
vn 0.2566 0.2566 0.9318
vn 0.6901 0.2178 0.6901
vn 0.5774 0.5774 0.5773
vn 0.9318 0.2566 -0.2566
vn 0.6901 0.2178 -0.6901
vn 0.2566 0.2566 -0.9318
vn 0.2178 0.6901 -0.6901
vn 0.2566 0.9318 -0.2566
vn 0.6901 0.6901 -0.2178
vn 0.5774 0.5774 -0.5773
vn -0.2566 0.2566 -0.9318
vn -0.6901 0.2178 -0.6901
vn -0.9318 0.2566 -0.2566
vn -0.6901 0.6901 -0.2178
vn -0.2566 0.9318 -0.2566
vn -0.2178 0.6901 -0.6901
vn -0.5774 0.5774 -0.5773
vn -0.9318 0.2566 0.2566
vn -0.6901 0.2178 0.6901
vn -0.2566 0.2566 0.9318
vn -0.2178 0.6901 0.6901
vn -0.2566 0.9318 0.2566
vn -0.6901 0.6901 0.2178
vn -0.5774 0.5774 0.5773
vn 0.2585 -0.9660 -0.0000
vn 0.7071 -0.7071 -0.0000
vn 0.9660 -0.2585 -0.0000
vn -0.0000 -0.9660 -0.2585
vn -0.0000 -0.7071 -0.7071
vn -0.0000 -0.2584 -0.9660
vn -0.2585 -0.9660 -0.0000
vn -0.7071 -0.7071 -0.0000
vn -0.9660 -0.2585 -0.0000
vn -0.0000 -0.9660 0.2585
vn -0.0000 -0.7071 0.7071
vn -0.0000 -0.2584 0.9660
vn 0.9660 0.2585 -0.0000
vn 0.7071 0.7071 -0.0000
vn 0.2585 0.9660 -0.0000
vn -0.0000 0.2584 -0.9660
vn -0.0000 0.7071 -0.7071
vn -0.0000 0.9660 -0.2585
vn -0.9660 0.2585 -0.0000
vn -0.7071 0.7071 -0.0000
vn -0.2585 0.9660 -0.0000
vn -0.0000 0.2584 0.9660
vn -0.0000 0.7071 0.7071
vn -0.0000 0.9660 0.2585
vn -0.9660 -0.0000 -0.2585
vn -0.7071 -0.0000 -0.7071
vn -0.2585 -0.0000 -0.9660
vn 0.9660 -0.0000 -0.2585
vn 0.7071 -0.0000 -0.7071
vn 0.2585 -0.0000 -0.9660
vn -0.2585 -0.0000 0.9660
vn -0.7071 -0.0000 0.7071
vn -0.9660 -0.0000 0.2585
vn 0.2585 -0.0000 0.9660
vn 0.7071 -0.0000 0.7071
vn 0.9660 -0.0000 0.2585
vn 1.0000 -0.0000 -0.0000
vt 0.007449 0.000000
vt 0.992551 0.000000
vt 1.000000 0.014240
vt 1.000000 0.985760
vt 1.000000 0.014240
vt 0.992551 1.000000
vt 0.007449 1.000000
vt 0.007449 1.000000
vt 0.992551 1.000000
vt 0.007449 0.014240
vt 0.007449 0.985760
vt 0.992551 0.985760
vt 0.992551 0.014240
vt 0.000000 0.014240
vt 0.000000 0.014240
vt 0.000000 0.007430
vt 0.000000 0.007129
vt 0.003729 0.014240
vt 0.003887 0.007430
vt 0.007449 0.007129
vt 0.007449 0.000000
vt 0.003887 0.000000
vt 0.003729 0.000000
vt 0.992551 0.000000
vt 0.996113 0.000000
vt 0.996271 0.000000
vt 0.992551 0.007129
vt 0.996113 0.007430
vt 0.996271 0.014240
vt 1.000000 0.014240
vt 1.000000 0.007430
vt 1.000000 0.007129
vt 0.000000 0.985760
vt 0.000000 0.992871
vt 0.000000 0.992570
vt 0.000000 0.985760
vt 0.003729 1.000000
vt 0.003887 1.000000
vt 0.007449 1.000000
vt 0.007449 0.992871
vt 0.003887 0.992570
vt 0.003729 0.985760
vt 1.000000 0.985760
vt 1.000000 0.992570
vt 1.000000 0.992871
vt 0.996271 0.985760
vt 0.996113 0.992570
vt 0.992551 0.992871
vt 0.996113 1.000000
vt 0.996271 1.000000
vt 0.000000 0.992570
vt 0.000000 0.992871
vt 0.007449 1.000000
vt 0.003887 1.000000
vt 0.003729 1.000000
vt 0.000000 0.014240
vt 0.000000 0.007129
vt 0.000000 0.007430
vt 0.007449 0.000000
vt 0.996271 0.000000
vt 0.996113 0.000000
vt 1.000000 0.007129
vt 1.000000 0.007430
vt 1.000000 0.992871
vt 1.000000 0.992570
vt 0.996271 1.000000
s 0
f 3/1/1 13/2/1 73/2/1 62/1/1
f 15/3/2 37/4/2 85/4/2 74/5/2
f 39/6/3 26/7/3 51/8/3 86/9/3
f 2/10/4 27/11/4 38/12/4 14/13/4
f 63/10/5 75/13/5 87/12/5 50/11/5
f 1/14/6 4/15/6 6/16/6 5/17/6
f 4/15/7 8/18/7 9/19/7 6/16/7
f 2/10/8 7/20/8 9/19/8 8/18/8
f 7/20/9 11/21/9 12/22/9 9/19/9
f 3/1/10 10/23/10 12/22/10 11/21/10
f 10/23/11 5/17/11 6/16/11 12/22/11
f 6/16/12 9/19/12 12/22/12
f 13/2/13 16/24/13 18/25/13 17/26/13
f 16/24/14 20/27/14 21/28/14 18/25/14
f 14/13/15 19/29/15 21/28/15 20/27/15
f 19/29/16 23/30/16 24/31/16 21/28/16
f 15/3/17 22/32/17 24/31/17 23/30/17
f 22/32/18 17/26/18 18/25/18 24/31/18
f 18/25/19 21/28/19 24/31/19
f 25/33/20 28/34/20 30/35/20 29/36/20
f 28/34/21 32/37/21 33/38/21 30/35/21
f 26/7/22 31/39/22 33/38/22 32/37/22
f 31/39/23 35/40/23 36/41/23 33/38/23
f 27/11/24 34/42/24 36/41/24 35/40/24
f 34/42/25 29/36/25 30/35/25 36/41/25
f 30/35/26 33/38/26 36/41/26
f 37/4/27 40/43/27 42/44/27 41/45/27
f 40/43/28 44/46/28 45/47/28 42/44/28
f 38/12/29 43/48/29 45/47/29 44/46/29
f 43/48/30 47/9/30 48/49/30 45/47/30
f 39/6/31 46/50/31 48/49/31 47/9/31
f 46/50/32 41/45/32 42/44/32 48/49/32
f 42/44/33 45/47/33 48/49/33
f 49/33/34 52/36/34 54/51/34 53/52/34
f 52/36/35 56/42/35 57/41/35 54/51/35
f 50/11/36 55/40/36 57/41/36 56/42/36
f 55/40/37 59/53/37 60/54/37 57/41/37
f 51/8/38 58/55/38 60/54/38 59/53/38
f 58/55/39 53/52/39 54/51/39 60/54/39
f 54/51/40 57/41/40 60/54/40
f 61/56/41 64/57/41 66/58/41 65/14/41
f 64/57/42 68/23/42 69/22/42 66/58/42
f 62/1/43 67/59/43 69/22/43 68/23/43
f 67/59/44 71/20/44 72/19/44 69/22/44
f 63/10/45 70/18/45 72/19/45 71/20/45
f 70/18/46 65/14/46 66/58/46 72/19/46
f 66/58/47 69/22/47 72/19/47
f 73/2/48 76/60/48 78/61/48 77/24/48
f 76/60/49 80/62/49 81/63/49 78/61/49
f 74/5/50 79/3/50 81/63/50 80/62/50
f 79/3/51 83/29/51 84/28/51 81/63/51
f 75/13/52 82/27/52 84/28/52 83/29/52
f 82/27/53 77/24/53 78/61/53 84/28/53
f 78/61/54 81/63/54 84/28/54
f 85/4/55 88/64/55 90/65/55 89/43/55
f 88/64/56 92/66/56 93/49/56 90/65/56
f 86/9/57 91/9/57 93/49/57 92/66/57
f 91/9/58 95/48/58 96/47/58 93/49/58
f 87/12/59 94/46/59 96/47/59 95/48/59
f 94/46/60 89/43/60 90/65/60 96/47/60
f 90/65/61 93/49/61 96/47/61
f 27/11/62 2/10/62 8/18/62 34/42/62
f 34/42/63 8/18/63 4/15/63 29/36/63
f 29/36/64 4/15/64 1/14/64 25/33/64
f 2/10/65 14/13/65 20/27/65 7/20/65
f 7/20/66 20/27/66 16/24/66 11/21/66
f 11/21/67 16/24/67 13/2/67 3/1/67
f 14/13/68 38/12/68 44/46/68 19/29/68
f 19/29/69 44/46/69 40/43/69 23/30/69
f 23/30/70 40/43/70 37/4/70 15/3/70
f 38/12/71 27/11/71 35/40/71 43/48/71
f 43/48/72 35/40/72 31/39/72 47/9/72
f 47/9/73 31/39/73 26/7/73 39/6/73
f 49/33/74 61/56/74 65/14/74 52/36/74
f 52/36/75 65/14/75 70/18/75 56/42/75
f 56/42/76 70/18/76 63/10/76 50/11/76
f 62/1/77 73/2/77 77/24/77 67/59/77
f 67/59/78 77/24/78 82/27/78 71/20/78
f 71/20/79 82/27/79 75/13/79 63/10/79
f 74/5/80 85/4/80 89/43/80 79/3/80
f 79/3/81 89/43/81 94/46/81 83/29/81
f 83/29/82 94/46/82 87/12/82 75/13/82
f 86/9/83 51/8/83 59/53/83 91/9/83
f 91/9/84 59/53/84 55/40/84 95/48/84
f 95/48/85 55/40/85 50/11/85 87/12/85
f 15/3/86 74/5/86 80/62/86 22/32/86
f 22/32/87 80/62/87 76/60/87 17/26/87
f 17/26/88 76/60/88 73/2/88 13/2/88
f 61/56/89 1/14/89 5/17/89 64/57/89
f 64/57/90 5/17/90 10/23/90 68/23/90
f 68/23/91 10/23/91 3/1/91 62/1/91
f 39/6/92 86/9/92 92/66/92 46/50/92
f 46/50/93 92/66/93 88/64/93 41/45/93
f 41/45/94 88/64/94 85/4/94 37/4/94
f 51/8/95 26/7/95 32/37/95 58/55/95
f 58/55/96 32/37/96 28/34/96 53/52/96
f 53/52/97 28/34/97 25/33/97 49/33/97
f 25/33/98 1/14/98 61/56/98 49/33/98
