# Blender 4.2.1 LTS
# www.blender.org
mtllib windowphase1.mtl
o windowfrac1
v -36.811428 12.179713 -27.475594
v -37.233074 12.157616 -27.475594
v -37.650097 12.091566 -27.475594
v -38.057934 11.982286 -27.475594
v -38.452110 11.830976 -27.475594
v -38.828312 11.639290 -27.475594
v -39.182419 11.409332 -27.475594
v -35.564926 11.982286 -27.475594
v -35.972763 12.091566 -27.475594
v -36.389786 12.157616 -27.475594
v -37.233074 12.157616 -27.769932
v -36.811428 12.179713 -27.769932
v -37.650097 12.091566 -27.769932
v -38.057934 11.982286 -27.769932
v -38.452110 11.830976 -27.769932
v -38.828312 11.639290 -27.769932
v -39.182419 11.409332 -27.769932
v -35.564926 11.982286 -27.769932
v -35.972763 12.091566 -27.769932
v -36.389786 12.157616 -27.769932
v -36.831669 10.084477 -27.769932
v -38.796516 10.866547 -27.475594
v -36.482143 9.945547 -27.475594
v -36.482742 9.945623 -27.769932
v -36.313381 10.201441 -27.475594
v -35.367775 11.636246 -27.769932
v -35.225506 11.851995 -27.475594
v -35.225559 11.852016 -27.769932
v -39.209888 11.070716 -27.475594
v -39.379955 11.249371 -27.623484
v -39.379730 11.249554 -27.475594
v -39.149200 11.006947 -27.475594
v -39.379978 11.249352 -27.769932
v -39.149517 11.007191 -27.769932
v -38.808407 10.816607 -27.474789
v -36.494034 9.895607 -27.474789
v -36.843555 10.034537 -27.769127
v -36.494629 9.895682 -27.769127
v -36.325272 10.151501 -27.474789
v -35.379662 11.586305 -27.769127
v -35.237396 11.802055 -27.474789
v -35.237450 11.802075 -27.769127
v -39.221779 11.020775 -27.474789
v -39.391617 11.199613 -27.474789
v -39.391842 11.199430 -27.622679
v -39.391865 11.199411 -27.769127
v -39.161404 10.957251 -27.769127
v -39.161091 10.957006 -27.474789
v -39.653782 11.028310 -27.475592
v -39.952335 10.729753 -27.475592
v -40.218048 10.401625 -27.475592
v -40.448009 10.047520 -27.475592
v -40.639694 9.671317 -27.475592
v -40.791004 9.277139 -27.475592
v -40.900284 8.869304 -27.475592
v -40.966335 8.452279 -27.475592
v -40.988430 8.030636 -27.475592
v -40.966335 7.608992 -27.475592
v -39.653782 11.028310 -27.769930
v -39.952335 10.729753 -27.769930
v -40.218048 10.401625 -27.769930
v -40.448009 10.047520 -27.769930
v -40.639694 9.671317 -27.769930
v -40.791004 9.277139 -27.769930
v -40.900284 8.869304 -27.769930
v -40.966335 8.452279 -27.769930
v -40.988430 8.030636 -27.769930
v -40.966335 7.608992 -27.769930
v -38.930809 8.636178 -27.475592
v -39.241081 8.395914 -27.769930
v -39.296402 8.353756 -27.475592
v -39.296059 8.353443 -27.769930
v -38.876163 8.678511 -27.475592
v -38.876316 8.678496 -27.769930
v -38.930508 8.966236 -27.475592
v -39.239075 10.599131 -27.769930
v -39.294224 10.890560 -27.769930
v -39.294586 10.890211 -27.475592
v -40.906784 7.587772 -27.770620
v -40.906815 7.587990 -27.476282
v -39.354691 10.954269 -27.769930
v -39.524597 11.132921 -27.622444
v -39.524624 11.132898 -27.769930
v -39.524792 11.132761 -27.475592
v -39.185780 8.401525 -27.770620
v -39.240757 8.359055 -27.770620
v -38.875507 8.641788 -27.476282
v -39.241100 8.359366 -27.476282
v -38.820862 8.684122 -27.476282
v -38.821014 8.684108 -27.770620
v -39.183773 10.604741 -27.770620
v -38.875206 8.971847 -27.476282
v -39.239288 10.895823 -27.476282
v -39.238922 10.896172 -27.770620
v -40.962082 7.582160 -27.769930
v -40.962120 7.582379 -27.475592
v -39.299389 10.959880 -27.770620
v -39.469322 11.138510 -27.770620
v -39.469296 11.138532 -27.623137
v -39.469490 11.138372 -27.476282
v -37.467133 6.927248 -27.475592
v -37.111870 8.683518 -27.769930
v -37.165226 8.419450 -27.769930
v -37.112255 8.683644 -27.475592
v -37.661877 6.797347 -27.475592
v -38.463959 7.553147 -27.769930
v -38.606121 7.687535 -27.475592
v -38.606239 7.687284 -27.769930
v -37.548748 6.690748 -27.475592
v -37.548737 6.690748 -27.769930
v -37.514992 6.690748 -27.475592
v -37.515034 6.690748 -27.769930
v -37.329037 8.670455 -27.475592
v -38.536392 8.596848 -27.769930
v -38.752586 8.583053 -27.475592
v -38.752529 8.583578 -27.769930
v -39.170818 8.259089 -27.475592
v -39.171055 8.259282 -27.769930
v -37.122505 8.708305 -27.769930
v -37.175861 8.444237 -27.769930
v -37.477768 6.952035 -27.475592
v -37.122887 8.708431 -27.475592
v -38.474594 7.577934 -27.769930
v -38.616875 7.712071 -27.769930
v -37.672512 6.822133 -27.475592
v -38.616756 7.712322 -27.475592
v -37.559383 6.715534 -27.475592
v -37.559372 6.715534 -27.769930
v -37.525669 6.715534 -27.769930
v -37.525623 6.715534 -27.475592
v -37.339672 8.695242 -27.475592
v -38.547024 8.621636 -27.769930
v -38.763222 8.607840 -27.475592
v -38.763165 8.608365 -27.769930
v -39.181690 8.284070 -27.769930
v -39.181454 8.283876 -27.475592
v -40.887592 7.083817 -27.475592
v -40.778313 6.675982 -27.475592
v -40.887592 7.083817 -27.769930
v -40.778313 6.675982 -27.769930
v -38.572350 6.675982 -27.475592
v -38.584660 6.760722 -27.475592
v -38.697594 7.534436 -27.769930
v -38.572857 6.675982 -27.769930
v -38.717716 7.671491 -27.769930
v -38.718384 7.671540 -27.475592
v -39.283104 8.243165 -27.475592
v -39.282864 8.243351 -27.769930
v -40.949059 7.471885 -27.769930
v -40.949135 7.472383 -27.475592
v -40.798134 7.542309 -27.475592
v -39.510662 8.137970 -27.769930
v -38.529251 6.700071 -27.475592
v -38.529758 6.700071 -27.769930
v -38.654499 7.558525 -27.769930
v -38.541565 6.784811 -27.475592
v -38.675285 7.695630 -27.475592
v -38.674622 7.695580 -27.769930
v -39.239765 8.267440 -27.769930
v -39.240009 8.267255 -27.475592
v -40.905960 7.495974 -27.769930
v -39.467564 8.162060 -27.769930
v -40.906040 7.496472 -27.475592
v -40.755035 7.566398 -27.475592
v -32.780689 6.765150 -27.475540
v -32.671410 7.172985 -27.475540
v -32.605358 7.590009 -27.475540
v -32.583263 8.011652 -27.475540
v -32.605358 8.433296 -27.475540
v -32.671410 8.850321 -27.475540
v -32.780689 9.258155 -27.475540
v -32.931999 9.652334 -27.475540
v -33.123684 10.028537 -27.475540
v -34.976349 11.696684 -27.475540
v -32.671410 7.172985 -27.769878
v -32.780689 6.765150 -27.769878
v -32.605358 7.590009 -27.769878
v -32.583263 8.011652 -27.769878
v -32.605358 8.433296 -27.769878
v -32.671410 8.850321 -27.769878
v -32.780689 9.258155 -27.769878
v -32.931999 9.652334 -27.769878
v -33.123684 10.028537 -27.769878
v -34.976349 11.696684 -27.769878
v -34.092094 7.035829 -27.475540
v -36.021263 8.846698 -27.769878
v -36.366993 9.171546 -27.475540
v -36.367367 9.171626 -27.769878
v -33.803658 6.765150 -27.475540
v -33.803146 6.765150 -27.769878
v -34.680336 11.482190 -27.769878
v -33.301632 10.302551 -27.547377
v -33.301388 10.302176 -27.769878
v -34.864887 11.639891 -27.475540
v -34.864357 11.639621 -27.769878
v -33.301567 10.302451 -27.475540
v -35.139687 11.718527 -27.475594
v -35.139927 11.718619 -27.769932
v -36.286827 9.809221 -27.475540
v -36.398300 9.811106 -27.769932
v -36.132568 8.848569 -27.769932
v -36.478672 9.173497 -27.769932
v -34.203400 7.037700 -27.475594
v -36.478298 9.173416 -27.475594
v -33.914963 6.767020 -27.475594
v -33.914455 6.767020 -27.769932
v -34.715141 11.575070 -27.771362
v -33.336193 10.395057 -27.771360
v -33.336437 10.395432 -27.548859
v -34.899693 11.732771 -27.477024
v -33.336372 10.395331 -27.477024
v -34.899162 11.732501 -27.771362
v -35.028378 11.716656 -27.475540
v -35.028618 11.716749 -27.769878
v -36.286995 9.809236 -27.769878
v -36.398136 9.811092 -27.475594
v -37.429966 6.695868 -27.475592
v -37.382225 6.934540 -27.769930
v -37.430393 6.695868 -27.769930
v -37.080887 8.425467 -27.475592
v -37.027584 8.688815 -27.475592
v -37.027027 8.689362 -27.769930
v -36.157829 8.779198 -27.769930
v -34.228695 6.968019 -27.475592
v -33.938824 6.695868 -27.475592
v -33.938850 6.695868 -27.769930
v -36.501030 9.100383 -27.475592
v -36.500786 9.101031 -27.769930
v -36.958984 8.742489 -27.475592
v -36.569904 9.047014 -27.769930
v -37.445107 6.726750 -27.475592
v -37.096031 8.456349 -27.475592
v -37.397366 6.965422 -27.769930
v -37.445538 6.726750 -27.769930
v -37.042728 8.719697 -27.475592
v -37.042171 8.720243 -27.769930
v -33.953964 6.726750 -27.475592
v -33.953995 6.726750 -27.769930
v -36.172970 8.810081 -27.769930
v -34.243835 6.998901 -27.475592
v -36.516174 9.131264 -27.475592
v -36.515930 9.131913 -27.769930
v -36.585049 9.077897 -27.769930
v -36.974125 8.773370 -27.475592
v -38.733047 8.679707 -27.468328
v -38.735790 8.676807 -27.777195
v -37.092327 8.779858 -27.468328
v -37.095467 8.777138 -27.777195
v -36.635265 9.136694 -27.468328
v -37.026779 8.830764 -27.777195
v -39.153656 10.887454 -27.777195
v -39.150589 10.889419 -27.468328
v -36.484516 9.828151 -27.468328
v -36.487736 9.826148 -27.777195
v -36.568874 9.188626 -27.777195
v -36.565590 9.191145 -27.468328
v -38.734646 8.678460 -27.475592
v -37.093925 8.778610 -27.475592
v -38.734196 8.678054 -27.769930
v -37.093872 8.778384 -27.769930
v -36.636860 9.135448 -27.475592
v -37.025185 8.832010 -27.769930
v -39.152061 10.888700 -27.769930
v -39.152184 10.888172 -27.475592
v -36.486111 9.826904 -27.475592
v -36.486141 9.827394 -27.769930
v -36.567280 9.189873 -27.769930
v -36.567184 9.189898 -27.475592
v -33.357033 10.450718 -27.461773
v -33.357033 10.450718 -27.783440
v -33.302666 10.368405 -27.460419
v -33.302795 10.368605 -27.782085
v -33.426708 10.474181 -27.461773
v -33.410599 10.516870 -27.461773
v -33.425320 10.473442 -27.728289
v -33.410709 10.517006 -27.700439
v -33.426773 10.474329 -27.783440
v -33.410648 10.516928 -27.783440
v -33.425205 10.473267 -27.460419
v -33.409096 10.515955 -27.460419
v -33.409206 10.516091 -27.699085
v -33.425270 10.473413 -27.782085
v -33.409142 10.516012 -27.782085
v -33.304173 10.369320 -27.461773
v -33.304298 10.369519 -27.783440
v -33.616413 10.779165 -27.461927
v -33.942688 11.105441 -27.461927
v -34.301281 11.395824 -27.461927
v -34.688267 11.647134 -27.461927
v -33.616413 10.779165 -27.783594
v -33.942688 11.105441 -27.783594
v -34.301281 11.395824 -27.783594
v -34.688267 11.647134 -27.783594
v -34.981174 11.805083 -27.783594
v -34.981510 11.805253 -27.461927
v -33.410694 10.461030 -27.461927
v -33.394367 10.504166 -27.461927
v -33.397728 10.445856 -27.783594
v -33.394512 10.504341 -27.783594
v -33.397594 10.445651 -27.461927
v -33.381268 10.488788 -27.461927
v -33.410828 10.461234 -27.783594
v -33.381413 10.488963 -27.783594
v -34.968410 11.789875 -27.461927
v -34.968075 11.789704 -27.783594
v -38.661877 7.728988 -27.461927
v -38.506699 7.582940 -27.461927
v -38.662552 7.728555 -27.783594
v -37.632923 6.759505 -27.783594
v -37.510586 6.643410 -27.461927
v -37.509834 6.643410 -27.783594
v -38.517227 6.734965 -27.461927
v -38.640823 7.579226 -27.783594
v -38.503834 6.643410 -27.461927
v -38.503922 6.643410 -27.783594
v -38.655891 7.719115 -27.461927
v -38.500713 7.573066 -27.461927
v -38.656563 7.718681 -27.783594
v -37.626934 6.749633 -27.783594
v -37.504597 6.633536 -27.461927
v -37.503845 6.633536 -27.783594
v -38.511242 6.725092 -27.461927
v -38.634834 7.569352 -27.783594
v -38.497849 6.633536 -27.461927
v -38.497936 6.633536 -27.783594
vn -0.3697 -0.9291 0.0005
vn 0.8348 -0.5506 -0.0018
vn 0.8350 -0.5503 -0.0002
vn -0.7251 -0.6886 0.0020
vn -0.7244 -0.6894 0.0002
vn -0.3699 -0.9291 -0.0004
vn -0.0000 -0.0000 1.0000
vn -0.0000 -0.0000 -1.0000
vn -0.0523 0.9986 -0.0000
vn -0.1564 0.9877 -0.0000
vn -0.2588 0.9659 -0.0000
vn -0.3584 0.9336 -0.0000
vn -0.4540 0.8910 -0.0000
vn -0.5446 0.8387 -0.0000
vn 0.3584 0.9336 -0.0000
vn -0.6293 0.7771 -0.0000
vn 0.2588 0.9659 -0.0000
vn 0.1564 0.9877 -0.0000
vn 0.0523 0.9986 -0.0000
vn 0.6113 -0.7914 0.0016
vn 0.6124 -0.7905 -0.0003
vn 0.9826 0.1856 -0.0005
vn 0.9826 0.1859 0.0014
vn 0.7245 0.6893 -0.0002
vn 0.7253 0.6884 0.0017
vn -0.9986 0.0523 -0.0000
vn -0.9986 -0.0523 -0.0000
vn -0.9877 -0.1564 -0.0000
vn -0.7071 0.7071 -0.0000
vn -0.7771 0.6293 -0.0000
vn -0.8387 0.5446 -0.0000
vn -0.8910 0.4540 -0.0000
vn -0.9336 0.3584 -0.0000
vn -0.9659 0.2588 -0.0000
vn -0.9877 0.1564 -0.0000
vn 0.4202 -0.9074 0.0011
vn 0.9802 -0.1980 0.0014
vn -0.6860 -0.7276 0.0009
vn -0.6858 -0.7278 -0.0000
vn 0.9801 -0.1983 -0.0002
vn -0.0607 0.9982 -0.0005
vn -0.0613 0.9981 0.0018
vn -0.7115 -0.7027 0.0005
vn -0.0000 -1.0000 -0.0000
vn -0.6124 0.7905 0.0012
vn 0.9896 0.1438 -0.0017
vn 0.9894 0.1453 0.0022
vn -0.4202 0.9074 -0.0016
vn -0.4199 0.9076 0.0002
vn -0.9659 -0.2588 -0.0000
vn 0.7113 0.7029 0.0013
vn -0.6845 -0.7291 0.0007
vn -0.6843 -0.7292 -0.0012
vn 0.6502 0.7598 -0.0006
vn 0.6501 0.7599 0.0005
vn -0.9922 0.1249 0.0009
vn 0.4540 0.8910 -0.0000
vn 0.9659 -0.2588 -0.0000
vn 0.9877 -0.1564 -0.0000
vn 0.9986 -0.0523 -0.0000
vn 0.9986 0.0523 -0.0000
vn 0.9877 0.1564 -0.0000
vn 0.9659 0.2588 -0.0000
vn 0.9336 0.3584 -0.0000
vn 0.8910 0.4540 -0.0000
vn 0.8387 0.5446 -0.0000
vn -0.8347 0.5507 0.0007
vn -0.9802 0.1978 0.0014
vn -0.9801 0.1984 -0.0015
vn 0.6845 0.7290 -0.0001
vn 0.6843 0.7292 0.0022
vn -0.6158 0.7879 0.0012
vn -0.6162 0.7876 0.0003
vn 0.3699 0.9291 0.0017
vn 0.6154 -0.7882 0.0007
vn 0.0610 -0.9981 0.0011
vn -0.9826 -0.1857 -0.0010
vn 0.6158 -0.7879 -0.0001
vn 0.9920 -0.1263 -0.0003
vn -0.9356 0.3531 0.0006
vn -0.9352 0.3541 -0.0011
vn 0.7771 0.6293 -0.0000
vn -0.6502 -0.7598 -0.0002
vn 0.7071 0.7071 -0.0000
vn 0.6293 0.7771 -0.0000
vn 0.5446 0.8387 -0.0000
vn 0.9353 -0.3540 -0.0006
vn 0.6854 0.7282 -0.0024
vn 0.6861 0.7275 0.0016
vn -0.9896 -0.1440 0.0023
vn -0.9895 -0.1447 0.0003
vt 1.000000 0.868457
vt 0.132253 0.000000
vt 0.869174 0.000000
vt 1.000000 0.130933
vt 1.000000 0.868656
vt 0.868457 0.868457
vt 0.130933 0.130933
vt 1.000000 0.132245
vt 0.869546 0.021333
vt 0.868656 0.868656
vt 0.132245 0.132245
vt 0.132361 0.021478
vt 0.630257 0.498152
vt 1.000000 0.498173
vt 1.000000 0.867928
vt 1.000000 0.130796
vt 1.000000 0.867742
vt 0.867928 0.867928
vt 0.498173 0.498173
vt 0.498463 0.131502
vt 1.000000 0.130826
vt 1.000000 0.867747
vt 0.867742 0.867742
vt 0.130796 0.130796
vt 0.000000 0.000000
vt 0.869278 0.000000
vt 1.000000 0.130799
vt 1.000000 0.869787
vt 0.130723 0.000000
vt 1.000000 0.869829
vt 0.869787 0.869787
vt 0.130799 0.130799
vt 1.000000 0.131079
vt 0.131079 0.131079
vt 1.000000 0.131771
vt 1.000000 0.869933
vt 0.869829 0.869829
vt 0.869933 0.869933
vt 0.131771 0.131771
vt 0.131541 0.000000
vt 0.868412 0.000000
vt 0.630878 0.499029
vt 1.000000 0.499238
vt 1.000000 0.868460
vt 1.000000 0.131588
vt 1.000000 0.868459
vt 0.868460 0.868460
vt 0.499238 0.499238
vt 0.499207 0.131593
vt 1.000000 0.130722
vt 1.000000 0.869277
vt 0.177203 0.045284
vt 0.913366 0.045030
vt 0.130750 0.130750
vt 0.130452 0.000000
vt 0.867673 0.000000
vt 0.869657 0.869657
vt 0.868932 0.000000
vt 1.000000 0.131050
vt 1.000000 0.869702
vt 0.130177 0.000000
vt 0.869702 0.869702
vt 0.131050 0.131050
vt 0.973933 0.131579
vt 0.973889 0.869767
vt 1.000000 0.130750
vt 1.000000 0.869657
vt 0.883000 0.869771
vt 0.144789 0.131582
vt 1.000000 0.132328
vt 1.000000 0.869548
vt 0.131770 0.000000
vt 0.867873 0.000000
vt 0.867873 0.867873
vt 0.131770 0.131770
vt 0.131833 0.000000
vt 0.868291 0.000000
vt 0.131068 0.000000
vt 0.869823 0.000000
vt 0.868421 0.868421
vt 0.131375 0.131375
vt 0.868167 0.000000
vt 1.000000 0.131375
vt 1.000000 0.868422
vt 0.131709 0.000000
vt 0.180934 0.130764
vt 1.000000 0.130755
vt 1.000000 0.868949
vt 0.919148 0.868950
vt 0.868949 0.868949
vt 0.130755 0.130755
vt 0.130658 0.000000
vt 0.868302 0.000000
vt 0.868267 0.822798
vt 0.131673 0.086378
vt 0.131798 0.000000
vt 0.869458 0.000000
vt 0.869458 0.869458
vt 0.131798 0.131798
vt 1.000000 0.130275
vt 1.000000 0.869229
vt 0.869725 0.000000
vt 1.000000 0.131698
vt 1.000000 0.869342
vt 0.130771 0.000000
vt 0.867763 0.000000
vt 1.000000 0.132149
vt 1.000000 0.868604
vt 0.130817 0.000000
vt 0.868604 0.868604
vt 0.132149 0.132149
vt 0.978768 0.130531
vt 0.978696 0.868394
vt 0.130137 0.000000
vt 0.688096 0.000000
vt 0.688286 0.557039
vt 0.868391 0.688111
vt 0.688096 0.688096
vt 0.130137 0.130137
vt 0.130201 0.055660
vt 0.868935 0.055398
vt 0.132237 0.000000
vt 0.869183 0.000000
vt 0.868352 0.868352
vt 0.130779 0.130779
vt 1.000000 0.130779
vt 1.000000 0.868352
vt 0.151744 0.020709
vt 0.890576 0.020807
vt 1.000000 0.130223
vt 1.000000 0.867739
vt 0.881947 0.867744
vt 0.144498 0.130257
vt 0.130223 0.130223
vt 0.130453 0.000000
vt 0.869278 0.000000
vt 0.867739 0.867739
vt 0.978622 0.847742
vt 0.131007 0.000000
vt 0.868008 0.000000
vt 0.978734 0.110743
vt 0.868008 0.868008
vt 0.131007 0.131007
vt 0.131224 0.000000
vt 0.869450 0.000000
vt 0.131251 0.000000
vt 0.869626 0.000000
vt 0.869450 0.869450
vt 0.131224 0.131224
vt 0.869626 0.869626
vt 0.131251 0.131251
vt 1.000000 0.130722
vt 1.000000 0.869547
vt 0.130957 0.000000
vt 0.868841 0.000000
vt 0.868703 0.868703
vt 0.130366 0.130366
vt 0.867685 0.000000
vt 0.869732 0.869732
vt 0.130706 0.130706
vt 0.130398 0.000000
vt 0.869732 0.000000
vt 1.000000 0.132026
vt 1.000000 0.869133
vt 0.130706 0.000000
vt 0.132026 0.132026
vt 0.130366 0.000000
vt 0.868703 0.000000
vt 0.869133 0.869133
vt 0.132202 0.132202
vt 0.132315 0.000000
vt 0.869602 0.000000
vt 0.868860 0.868860
vt 1.000000 0.868860
vt 0.131159 0.000000
vt 0.869043 0.000000
vt 1.000000 0.132202
vt 0.678303 0.547059
vt 0.678625 0.000000
vt 0.745611 0.000000
vt 0.745284 0.614034
vt 0.876629 0.131006
vt 1.000000 0.254388
vt 1.000000 0.321375
vt 0.809711 0.131013
vt 0.773284 0.132058
vt 0.818665 0.132059
vt 0.686488 0.556100
vt 0.703947 0.578739
vt 0.764781 0.207884
vt 0.704216 0.579088
vt 0.928021 0.869296
vt 0.190699 0.132053
vt 0.772559 0.132058
vt 0.868360 0.613638
vt 0.254982 0.132067
vt 0.321997 0.132086
vt 0.868332 0.546642
vt 0.868961 0.000000
vt 1.000000 0.130777
vt 1.000000 0.867724
vt 0.130541 0.000000
vt 0.971579 0.867702
vt 0.867724 0.867724
vt 0.130777 0.130777
vt 0.971240 0.130597
vt 0.868961 0.868961
vt 0.130541 0.130541
vt 0.130650 0.000000
vt 0.869686 0.000000
vt 0.949813 0.869688
vt 0.869686 0.869686
vt 0.130650 0.130650
vt 0.949649 0.130669
s 0
usemtl glass
f 36/1/1 35/2/1 37/3/1 38/4/1
f 39/5/2 36/6/2 38/7/2 40/8/2
f 41/9/3 39/10/3 40/11/3 42/12/3
f 44/13/4 45/14/4 43/15/4
f 47/16/5 48/17/5 43/18/5 45/19/5 46/20/5
f 37/21/6 35/22/6 48/23/6 47/24/6
f 27/25/7 8/25/7 9/25/7 10/25/7 1/25/7 2/25/7 3/25/7 4/25/7 5/25/7 6/25/7 7/25/7 31/25/7 29/25/7 32/25/7 22/25/7 23/25/7 25/25/7
f 24/25/8 21/25/8 34/25/8 33/25/8 17/25/8 16/25/8 15/25/8 14/25/8 13/25/8 11/25/8 12/25/8 20/25/8 19/25/8 18/25/8 28/25/8 26/25/8
f 1/25/9 12/25/9 11/25/9 2/25/9
f 13/25/10 3/25/10 2/25/10 11/25/10
f 14/25/11 4/25/11 3/25/11 13/25/11
f 15/25/12 5/25/12 4/25/12 14/25/12
f 16/25/13 6/25/13 5/25/13 15/25/13
f 17/25/14 7/25/14 6/25/14 16/25/14
f 28/25/15 18/25/15 8/25/15 27/25/15
f 30/25/16 31/25/16 7/25/16 17/25/16 33/25/16
f 8/25/17 18/25/17 19/25/17 9/25/17
f 9/25/18 19/25/18 20/25/18 10/25/18
f 10/25/19 20/25/19 12/25/19 1/25/19
f 86/26/20 85/27/20 87/28/20 88/29/20
f 89/30/21 87/31/21 85/32/21 90/33/21
f 90/34/22 91/35/22 92/36/22 89/37/22
f 92/38/23 91/39/23 94/40/23 93/41/23
f 98/42/24 99/43/24 97/44/24
f 93/45/25 94/46/25 97/47/25 99/48/25 100/49/25
f 84/25/7 49/25/7 50/25/7 51/25/7 52/25/7 53/25/7 54/25/7 55/25/7 56/25/7 57/25/7 58/25/7 96/25/7 71/25/7 69/25/7 73/25/7 75/25/7 78/25/7
f 68/25/8 67/25/8 66/25/8 65/25/8 64/25/8 63/25/8 62/25/8 61/25/8 60/25/8 59/25/8 83/25/8 81/25/8 77/25/8 76/25/8 74/25/8 70/25/8 72/25/8 95/25/8
f 56/25/26 66/25/26 67/25/26 57/25/26
f 57/25/27 67/25/27 68/25/27 58/25/27
f 96/25/28 58/25/28 68/25/28 95/25/28
f 83/25/16 59/25/16 49/25/16 84/25/16 82/25/16
f 49/25/29 59/25/29 60/25/29 50/25/29
f 50/25/30 60/25/30 61/25/30 51/25/30
f 51/25/31 61/25/31 62/25/31 52/25/31
f 52/25/32 62/25/32 63/25/32 53/25/32
f 53/25/33 63/25/33 64/25/33 54/25/33
f 54/25/34 64/25/34 65/25/34 55/25/34
f 55/25/35 65/25/35 66/25/35 56/25/35
f 86/50/36 88/51/36 80/52/36 79/53/36
f 120/54/37 119/55/37 122/56/37 121/57/37
f 124/58/38 123/59/38 125/60/38 126/61/38
f 125/62/39 123/63/39 128/64/39 127/65/39
f 120/66/40 121/67/40 130/68/40 129/69/40
f 122/70/41 119/71/41 132/72/41 131/73/41
f 131/74/42 132/75/42 134/76/42 133/77/42
f 124/78/43 126/79/43 136/80/43 135/81/43
f 115/25/7 117/25/7 107/25/7 105/25/7 109/25/7 111/25/7 101/25/7 104/25/7 113/25/7
f 112/25/8 110/25/8 106/25/8 108/25/8 118/25/8 116/25/8 114/25/8 102/25/8 103/25/8
f 110/25/44 112/25/44 111/25/44 109/25/44
f 134/82/45 135/83/45 136/84/45 133/85/45
f 154/86/46 155/87/46 156/88/46 153/89/46
f 156/90/47 155/91/47 158/92/47 157/93/47
f 161/94/48 163/95/48 164/96/48 162/97/48
f 162/98/49 164/99/49 160/100/49 159/101/49
f 150/25/7 137/25/7 138/25/7 141/25/7 142/25/7 146/25/7 147/25/7 151/25/7
f 145/25/8 143/25/8 144/25/8 140/25/8 139/25/8 149/25/8 152/25/8 148/25/8
f 139/25/28 137/25/28 150/25/28 149/25/28
f 137/25/50 139/25/50 140/25/50 138/25/50
f 141/25/44 138/25/44 140/25/44 144/25/44
f 160/102/51 157/103/51 158/104/51 159/105/51
f 202/106/52 201/107/52 203/108/52 204/109/52
f 203/110/53 201/111/53 206/112/53 205/113/53
f 207/114/54 209/115/54 208/116/54
f 211/117/55 209/118/55 207/119/55 212/120/55 210/121/55
f 202/122/56 204/123/56 216/124/56 200/125/56
f 194/25/7 174/25/7 213/25/7 199/25/7 187/25/7 185/25/7 189/25/7 165/25/7 166/25/7 167/25/7 168/25/7 169/25/7 170/25/7 171/25/7 172/25/7 173/25/7 196/25/7
f 214/25/8 184/25/8 195/25/8 191/25/8 193/25/8 183/25/8 182/25/8 181/25/8 180/25/8 179/25/8 178/25/8 177/25/8 175/25/8 176/25/8 190/25/8 186/25/8 188/25/8 215/25/8
f 184/25/57 174/25/57 194/25/57 195/25/57
f 165/25/58 176/25/58 175/25/58 166/25/58
f 213/25/15 174/25/15 184/25/15 214/25/15
f 166/25/59 175/25/59 177/25/59 167/25/59
f 167/25/60 177/25/60 178/25/60 168/25/60
f 168/25/61 178/25/61 179/25/61 169/25/61
f 169/25/62 179/25/62 180/25/62 170/25/62
f 190/25/44 176/25/44 165/25/44 189/25/44
f 170/25/63 180/25/63 181/25/63 171/25/63
f 172/25/64 171/25/64 181/25/64 182/25/64
f 173/25/65 172/25/65 182/25/65 183/25/65
f 196/25/66 173/25/66 183/25/66 193/25/66 192/25/66
f 200/126/67 216/127/67 197/128/67 198/129/67
f 232/130/68 233/131/68 234/132/68 231/133/68
f 232/134/69 235/135/69 236/136/69 233/137/69
f 238/138/70 239/139/70 240/140/70 237/141/70
f 240/142/71 239/143/71 242/144/71 241/145/71
f 243/146/72 244/147/72 241/148/72 242/149/72
f 244/150/73 243/151/73 236/152/73 235/153/73
f 221/25/7 220/25/7 217/25/7 225/25/7 224/25/7 227/25/7 229/25/7
f 228/25/8 223/25/8 226/25/8 219/25/8 218/25/8 222/25/8 230/25/8
f 219/25/44 226/25/44 225/25/44 217/25/44
f 265/154/74 266/155/74 263/156/74 264/157/74
f 261/158/75 258/159/75 260/160/75 262/161/75
f 258/162/76 257/163/76 259/164/76 260/165/76
f 257/166/77 264/167/77 263/168/77 259/169/77
f 268/170/78 261/171/78 262/172/78 267/173/78
f 253/25/7 252/25/7 245/25/7 247/25/7 249/25/7 256/25/7
f 250/25/8 248/25/8 246/25/8 251/25/8 254/25/8 255/25/8
f 267/174/79 266/175/79 265/176/79 268/177/79
f 280/178/80 281/179/80 275/180/80 279/181/80
f 282/182/81 275/183/81 281/184/81 283/185/81
f 284/25/7 269/25/7 274/25/7 273/25/7
f 278/25/8 270/25/8 285/25/8 277/25/8
f 274/25/82 269/25/82 270/25/82 278/25/82 276/25/82
f 285/25/66 270/25/66 269/25/66 284/25/66
f 282/186/83 272/187/83 271/188/83 279/189/83 275/190/83
f 301/25/7 286/25/7 287/25/7 288/25/7 289/25/7 304/25/7 300/25/7
f 293/25/8 292/25/8 291/25/8 290/25/8 303/25/8 298/25/8 305/25/8
f 303/25/82 290/25/82 286/25/82 301/25/82
f 287/25/84 286/25/84 290/25/84 291/25/84
f 292/25/85 288/25/85 287/25/85 291/25/85
f 293/25/86 289/25/86 288/25/86 292/25/86
f 304/25/57 289/25/57 293/25/57 305/25/57
f 296/191/83 295/192/83 294/193/83 302/194/83
f 296/195/87 302/196/87 299/197/87 297/198/87
f 316/199/88 317/200/88 319/201/88 318/202/88
f 321/203/89 319/204/89 317/205/89 320/206/89
f 316/207/90 318/208/90 323/209/90 322/210/90
f 324/211/91 322/212/91 323/213/91 325/214/91
f 307/25/7 306/25/7 312/25/7 314/25/7 310/25/7
f 308/25/8 309/25/8 311/25/8 315/25/8 313/25/8
f 310/25/44 314/25/44 315/25/44 311/25/44
